<mxfile host="app.diagrams.net" agent="Mozilla/5.0 (Windows NT 10.0; Win64; x64) AppleWebKit/537.36 (KHTML, like Gecko) Chrome/140.0.0.0 Safari/537.36" version="28.2.1">
  <diagram name="Page-1" id="2YBvvXClWsGukQMizWep">
    <mxGraphModel dx="748" dy="377" grid="1" gridSize="10" guides="1" tooltips="1" connect="1" arrows="1" fold="1" page="1" pageScale="1" pageWidth="850" pageHeight="1100" math="0" shadow="0">
      <root>
        <mxCell id="0" />
        <mxCell id="1" parent="0" />
        <mxCell id="0-Ma1u868qorisCAPSO0-43" value="" style="group" parent="1" vertex="1" connectable="0">
          <mxGeometry x="60" y="159.9999999999999" width="720" height="300.0000000000001" as="geometry" />
        </mxCell>
        <mxCell id="0-Ma1u868qorisCAPSO0-10" value="lectura" style="html=1;verticalAlign=bottom;startArrow=oval;endArrow=block;startSize=8;curved=0;rounded=0;" parent="0-Ma1u868qorisCAPSO0-43" target="0-Ma1u868qorisCAPSO0-11" edge="1">
          <mxGeometry relative="1" as="geometry">
            <mxPoint y="60.000000000000114" as="sourcePoint" />
            <mxPoint x="69.99999999999989" y="40" as="targetPoint" />
          </mxGeometry>
        </mxCell>
        <mxCell id="0-Ma1u868qorisCAPSO0-11" value="Esp32(Sensor)" style="shape=umlLifeline;perimeter=lifelinePerimeter;whiteSpace=wrap;html=1;container=1;dropTarget=0;collapsible=0;recursiveResize=0;outlineConnect=0;portConstraint=eastwest;newEdgeStyle={&quot;curved&quot;:0,&quot;rounded&quot;:0};" parent="0-Ma1u868qorisCAPSO0-43" vertex="1">
          <mxGeometry x="19.999999999999886" width="100" height="300" as="geometry" />
        </mxCell>
        <mxCell id="0-Ma1u868qorisCAPSO0-12" value="Broker(MQTT)" style="shape=umlLifeline;perimeter=lifelinePerimeter;whiteSpace=wrap;html=1;container=1;dropTarget=0;collapsible=0;recursiveResize=0;outlineConnect=0;portConstraint=eastwest;newEdgeStyle={&quot;curved&quot;:0,&quot;rounded&quot;:0};" parent="0-Ma1u868qorisCAPSO0-43" vertex="1">
          <mxGeometry x="170" y="1.1368683772161603e-13" width="100" height="300" as="geometry" />
        </mxCell>
        <mxCell id="0-Ma1u868qorisCAPSO0-14" value="" style="html=1;points=[[0,0,0,0,5],[0,1,0,0,-5],[1,0,0,0,5],[1,1,0,0,-5]];perimeter=orthogonalPerimeter;outlineConnect=0;targetShapes=umlLifeline;portConstraint=eastwest;newEdgeStyle={&quot;curved&quot;:0,&quot;rounded&quot;:0};" parent="0-Ma1u868qorisCAPSO0-12" vertex="1">
          <mxGeometry x="45" y="80" width="10" height="40" as="geometry" />
        </mxCell>
        <mxCell id="0-Ma1u868qorisCAPSO0-13" value="" style="endArrow=classic;endFill=1;endSize=12;html=1;rounded=0;" parent="0-Ma1u868qorisCAPSO0-43" edge="1">
          <mxGeometry width="160" relative="1" as="geometry">
            <mxPoint x="69.63043478260863" y="76" as="sourcePoint" />
            <mxPoint x="219.4999999999999" y="76" as="targetPoint" />
          </mxGeometry>
        </mxCell>
        <mxCell id="0-Ma1u868qorisCAPSO0-17" value="" style="endArrow=classic;endFill=1;endSize=12;html=1;rounded=0;" parent="0-Ma1u868qorisCAPSO0-43" target="0-Ma1u868qorisCAPSO0-19" edge="1">
          <mxGeometry width="160" relative="1" as="geometry">
            <mxPoint x="219.63043478260863" y="133" as="sourcePoint" />
            <mxPoint x="369.5" y="133" as="targetPoint" />
          </mxGeometry>
        </mxCell>
        <mxCell id="0-Ma1u868qorisCAPSO0-18" value="Entrega lectura" style="edgeLabel;html=1;align=center;verticalAlign=middle;resizable=0;points=[];" parent="0-Ma1u868qorisCAPSO0-17" vertex="1" connectable="0">
          <mxGeometry x="0.3545" y="2" relative="1" as="geometry">
            <mxPoint x="-22" y="-8" as="offset" />
          </mxGeometry>
        </mxCell>
        <mxCell id="0-Ma1u868qorisCAPSO0-19" value="Home Assitant" style="shape=umlLifeline;perimeter=lifelinePerimeter;whiteSpace=wrap;html=1;container=1;dropTarget=0;collapsible=0;recursiveResize=0;outlineConnect=0;portConstraint=eastwest;newEdgeStyle={&quot;curved&quot;:0,&quot;rounded&quot;:0};" parent="0-Ma1u868qorisCAPSO0-43" vertex="1">
          <mxGeometry x="320" y="1.1368683772161603e-13" width="100" height="300" as="geometry" />
        </mxCell>
        <mxCell id="0-Ma1u868qorisCAPSO0-27" value="" style="html=1;points=[[0,0,0,0,5],[0,1,0,0,-5],[1,0,0,0,5],[1,1,0,0,-5]];perimeter=orthogonalPerimeter;outlineConnect=0;targetShapes=umlLifeline;portConstraint=eastwest;newEdgeStyle={&quot;curved&quot;:0,&quot;rounded&quot;:0};" parent="0-Ma1u868qorisCAPSO0-19" vertex="1">
          <mxGeometry x="45" y="180" width="10" height="40" as="geometry" />
        </mxCell>
        <mxCell id="0-Ma1u868qorisCAPSO0-20" value="Dashboard" style="shape=umlLifeline;perimeter=lifelinePerimeter;whiteSpace=wrap;html=1;container=1;dropTarget=0;collapsible=0;recursiveResize=0;outlineConnect=0;portConstraint=eastwest;newEdgeStyle={&quot;curved&quot;:0,&quot;rounded&quot;:0};" parent="0-Ma1u868qorisCAPSO0-43" vertex="1">
          <mxGeometry x="470" y="1.1368683772161603e-13" width="100" height="300" as="geometry" />
        </mxCell>
        <mxCell id="0-Ma1u868qorisCAPSO0-21" value="" style="endArrow=classic;endFill=1;endSize=12;html=1;rounded=0;" parent="0-Ma1u868qorisCAPSO0-43" edge="1">
          <mxGeometry width="160" relative="1" as="geometry">
            <mxPoint x="369.63043478260875" y="178" as="sourcePoint" />
            <mxPoint x="519.5" y="178" as="targetPoint" />
          </mxGeometry>
        </mxCell>
        <mxCell id="0-Ma1u868qorisCAPSO0-22" value="Actualiza lecturas" style="edgeLabel;html=1;align=center;verticalAlign=middle;resizable=0;points=[];" parent="0-Ma1u868qorisCAPSO0-21" vertex="1" connectable="0">
          <mxGeometry x="0.3545" y="2" relative="1" as="geometry">
            <mxPoint x="-22" y="-8" as="offset" />
          </mxGeometry>
        </mxCell>
        <mxCell id="0-Ma1u868qorisCAPSO0-23" value="Encargado" style="shape=umlLifeline;perimeter=lifelinePerimeter;whiteSpace=wrap;html=1;container=1;dropTarget=0;collapsible=0;recursiveResize=0;outlineConnect=0;portConstraint=eastwest;newEdgeStyle={&quot;curved&quot;:0,&quot;rounded&quot;:0};" parent="0-Ma1u868qorisCAPSO0-43" vertex="1">
          <mxGeometry x="620" y="1.1368683772161603e-13" width="100" height="300" as="geometry" />
        </mxCell>
        <mxCell id="0-Ma1u868qorisCAPSO0-24" value="" style="endArrow=classic;endFill=1;endSize=12;html=1;rounded=0;" parent="0-Ma1u868qorisCAPSO0-43" edge="1">
          <mxGeometry width="160" relative="1" as="geometry">
            <mxPoint x="369.7857142857142" y="229.0000000000001" as="sourcePoint" />
            <mxPoint x="669.5" y="229.0000000000001" as="targetPoint" />
          </mxGeometry>
        </mxCell>
        <mxCell id="0-Ma1u868qorisCAPSO0-25" value="Envia alertas Telegram" style="edgeLabel;html=1;align=center;verticalAlign=middle;resizable=0;points=[];" parent="0-Ma1u868qorisCAPSO0-24" vertex="1" connectable="0">
          <mxGeometry x="0.3545" y="2" relative="1" as="geometry">
            <mxPoint x="-22" y="-8" as="offset" />
          </mxGeometry>
        </mxCell>
        <mxCell id="0-Ma1u868qorisCAPSO0-44" value="" style="group" parent="1" vertex="1" connectable="0">
          <mxGeometry x="75" y="10" width="700" height="70" as="geometry" />
        </mxCell>
        <mxCell id="0-Ma1u868qorisCAPSO0-45" value="&lt;div style=&quot;-webkit-user-drag: none; -webkit-tap-highlight-color: transparent; margin: 0px; padding: 0px; user-select: text; clear: both; cursor: text; overflow: visible; position: relative; direction: ltr; color: rgb(0, 0, 0); font-family: &amp;quot;Segoe UI&amp;quot;, &amp;quot;Segoe UI Web&amp;quot;, Arial, Verdana, sans-serif; text-align: start;&quot; class=&quot;OutlineElement Ltr SCXW107485866 BCX0&quot;&gt;&lt;p style=&quot;-webkit-user-drag: none; -webkit-tap-highlight-color: transparent; margin: 5.26667px 0px 0px; padding: 0px; user-select: text; overflow-wrap: break-word; white-space-collapse: preserve; vertical-align: baseline; font-kerning: none; color: windowtext; text-align: center;&quot; class=&quot;Paragraph SCXW107485866 BCX0&quot;&gt;&lt;span style=&quot;-webkit-user-drag: none; -webkit-tap-highlight-color: transparent; margin: 0px; padding: 0px; user-select: text; font-size: 16pt; font-style: italic; line-height: 25px; font-family: Arial, Arial_EmbeddedFont, Arial_MSFontService, sans-serif; font-weight: bold; background-color: light-dark(#ffffff, var(--ge-dark-color, #121212)); font-variant-ligatures: none !important;&quot; class=&quot;TextRun SCXW107485866 BCX0&quot; lang=&quot;ES-ES&quot; data-contrast=&quot;auto&quot;&gt;Prototipo para el Control de Humedad por Sensores&lt;/span&gt;&lt;/p&gt;&lt;p style=&quot;-webkit-user-drag: none; -webkit-tap-highlight-color: transparent; margin: 5.26667px 0px 0px; padding: 0px; user-select: text; overflow-wrap: break-word; white-space-collapse: preserve; vertical-align: baseline; font-kerning: none; color: windowtext; text-align: center;&quot; class=&quot;Paragraph SCXW107485866 BCX0&quot;&gt;&lt;span style=&quot;-webkit-user-drag: none; -webkit-tap-highlight-color: transparent; margin: 0px; padding: 0px; user-select: text; font-size: 16pt; font-style: italic; line-height: 25px; font-family: Arial, Arial_EmbeddedFont, Arial_MSFontService, sans-serif; font-weight: bold; background-color: light-dark(#ffffff, var(--ge-dark-color, #121212)); font-variant-ligatures: none !important;&quot; class=&quot;TextRun SCXW107485866 BCX0&quot; lang=&quot;ES-ES&quot; data-contrast=&quot;auto&quot;&gt;SISRIEGOSENS &lt;/span&gt;&lt;/p&gt;&lt;/div&gt;" style="text;html=1;align=center;verticalAlign=middle;whiteSpace=wrap;rounded=0;fillColor=default;fillStyle=dashed;" parent="0-Ma1u868qorisCAPSO0-44" vertex="1">
          <mxGeometry width="700" height="60" as="geometry" />
        </mxCell>
        <mxCell id="0-Ma1u868qorisCAPSO0-46" value="" style="endArrow=none;html=1;rounded=0;" parent="0-Ma1u868qorisCAPSO0-44" edge="1">
          <mxGeometry width="50" height="50" relative="1" as="geometry">
            <mxPoint x="75" y="70" as="sourcePoint" />
            <mxPoint x="615" y="70" as="targetPoint" />
            <Array as="points">
              <mxPoint x="355" y="70" />
            </Array>
          </mxGeometry>
        </mxCell>
        <mxCell id="0-Ma1u868qorisCAPSO0-47" value="Diagrama de Secuencia" style="text;html=1;align=center;verticalAlign=middle;whiteSpace=wrap;rounded=0;fontSize=14;fontStyle=1" parent="1" vertex="1">
          <mxGeometry x="327" y="100" width="195" height="30" as="geometry" />
        </mxCell>
      </root>
    </mxGraphModel>
  </diagram>
</mxfile>
